<?xml version="1.0" encoding="UTF-8" standalone="no"?>
<!DOCTYPE svg PUBLIC "-//W3C//DTD SVG 1.1//EN" "http://www.w3.org/Graphics/SVG/1.1/DTD/svg11.dtd">
<svg xmlns="http://www.w3.org/2000/svg" version="1.1" viewBox="0.00 0.00 1448.00 1448.00">
<g stroke-width="2.00" fill="none" stroke-linecap="butt">
<path stroke="#76aab6" vector-effect="non-scaling-stroke" d="
  M 491.70 611.79
  Q 491.91 612.24 491.64 612.74"
/>
<path stroke="#76aab6" vector-effect="non-scaling-stroke" d="
  M 489.81 638.28
  Q 489.61 638.82 489.93 638.73"
/>
<path stroke="#76aab6" vector-effect="non-scaling-stroke" d="
  M 464.33 732.12
  Q 460.20 741.42 457.46 747.00
  Q 452.58 756.93 445.98 767.73"
/>
<path stroke="#76aab6" vector-effect="non-scaling-stroke" d="
  M 421.22 804.84
  Q 407.77 823.10 388.12 844.37
  Q 382.18 850.80 380.33 852.40"
/>
<path stroke="#76aab6" vector-effect="non-scaling-stroke" d="
  M 378.18 854.60
  C 377.01 855.80 375.59 856.71 374.50 858.03
  Q 371.65 861.48 368.36 864.37
  Q 365.39 866.97 362.46 869.80
  Q 351.19 880.63 339.49 890.40"
/>
<path stroke="#76aab6" vector-effect="non-scaling-stroke" d="
  M 335.25 893.93
  L 332.04 897.05"
/>
<path stroke="#98b5c0" vector-effect="non-scaling-stroke" d="
  M 332.04 897.05
  L 315.10 910.37"
/>
<path stroke="#98b5c0" vector-effect="non-scaling-stroke" d="
  M 290.17 929.29
  L 268.05 946.02"
/>
<path stroke="#98b5c0" vector-effect="non-scaling-stroke" d="
  M 254.52 956.38
  L 223.46 981.43"
/>
<path stroke="#98b5c0" vector-effect="non-scaling-stroke" d="
  M 200.37 1001.18
  Q 198.95 1003.62 196.10 1005.04
  A 0.42 0.41 -39.6 0 0 196.03 1005.74
  L 196.34 1005.98
  A 0.29 0.27 46.8 0 0 196.66 1006.00
  L 203.95 1001.53"
/>
<path stroke="#98b5c0" vector-effect="non-scaling-stroke" d="
  M 219.10 992.46
  Q 221.17 990.71 223.95 989.74"
/>
<path stroke="#98b5c0" vector-effect="non-scaling-stroke" d="
  M 241.60 980.75
  L 248.16 977.43"
/>
<path stroke="#98b5c0" vector-effect="non-scaling-stroke" d="
  M 268.75 968.57
  L 276.51 965.41"
/>
<path stroke="#98b5c0" vector-effect="non-scaling-stroke" d="
  M 302.43 956.75
  L 315.69 952.72"
/>
<path stroke="#98b5c0" vector-effect="non-scaling-stroke" d="
  M 348.59 945.00
  L 368.69 941.15"
/>
<path stroke="#76aab6" vector-effect="non-scaling-stroke" d="
  M 550.50 940.60
  L 586.27 945.20"
/>
<path stroke="#76aab6" vector-effect="non-scaling-stroke" d="
  M 647.47 953.18
  L 675.99 956.93"
/>
<path stroke="#76aab6" vector-effect="non-scaling-stroke" d="
  M 861.22 956.85
  L 884.43 953.28"
/>
<path stroke="#76aab6" vector-effect="non-scaling-stroke" d="
  M 927.97 944.88
  L 940.93 941.62"
/>
<path stroke="#76aab6" vector-effect="non-scaling-stroke" d="
  M 973.26 932.84
  L 983.40 929.42"
/>
<path stroke="#76aab6" vector-effect="non-scaling-stroke" d="
  M 1008.57 921.02
  L 1014.96 918.45"
/>
<path stroke="#76aab6" vector-effect="non-scaling-stroke" d="
  M 1039.05 908.93
  L 1046.68 905.41"
/>
<path stroke="#76aab6" vector-effect="non-scaling-stroke" d="
  M 1064.06 897.40
  L 1093.48 882.02"
/>
<path stroke="#76aab6" vector-effect="non-scaling-stroke" d="
  M 1111.51 871.67
  L 1119.97 866.44"
/>
<path stroke="#76aab6" vector-effect="non-scaling-stroke" d="
  M 1128.24 861.41
  Q 1131.68 858.85 1135.39 856.39
  Q 1161.72 838.94 1182.99 822.38
  Q 1190.38 816.62 1197.35 810.82
  Q 1205.35 804.17 1211.01 798.31
  C 1214.42 794.78 1218.27 791.93 1221.42 788.30
  Q 1224.94 784.25 1228.62 780.71
  C 1229.71 779.66 1230.50 778.44 1231.54 777.31
  Q 1238.24 770.02 1244.58 762.71
  Q 1246.49 760.51 1248.45 758.31
  Q 1251.10 755.36 1253.63 751.73"
/>
<path stroke="#98b5c0" vector-effect="non-scaling-stroke" d="
  M 1253.63 751.73
  Q 1256.42 747.34 1259.82 742.30
  Q 1260.96 740.61 1259.51 739.67
  Q 1258.93 739.30 1257.36 739.22
  Q 1255.58 739.13 1254.24 738.31"
/>
<path stroke="#98b5c0" vector-effect="non-scaling-stroke" d="
  M 1229.25 738.38
  L 1211.04 742.41"
/>
<path stroke="#98b5c0" vector-effect="non-scaling-stroke" d="
  M 1187.94 750.51
  L 1180.77 754.18
  A 1.82 1.82 0.0 0 1 1178.40 753.53
  Q 1175.59 749.01 1172.46 744.70
  Q 1168.87 739.77 1165.51 737.06
  Q 1160.20 732.79 1154.84 729.69
  Q 1148.38 725.95 1140.50 724.80
  Q 1135.49 724.07 1130.60 723.62"
/>
<path stroke="#98b5c0" vector-effect="non-scaling-stroke" d="
  M 1126.41 724.18
  Q 1101.28 727.16 1087.12 748.14
  Q 1081.79 756.03 1080.31 764.03
  C 1079.81 766.73 1079.04 769.24 1078.91 772.04
  Q 1078.51 780.39 1079.89 788.36
  A 1.68 1.68 0.0 0 1 1078.40 790.32
  L 1074.34 790.73"
/>
<path stroke="#98b5c0" vector-effect="non-scaling-stroke" d="
  M 1010.58 791.62
  Q 1007.31 791.58 1002.50 790.91
  Q 980.60 787.90 963.46 783.02
  Q 943.37 777.30 927.21 771.31
  Q 879.86 753.76 834.69 725.10
  Q 812.17 710.82 790.95 694.39
  Q 769.29 677.63 747.92 659.52
  Q 736.34 649.71 724.41 638.52
  Q 712.57 627.42 701.41 616.85
  C 696.51 612.22 691.68 607.46 686.71 602.78
  Q 685.03 601.19 683.52 599.61
  C 681.16 597.14 678.54 595.06 676.13 592.63
  Q 674.12 590.62 672.08 588.67
  Q 660.97 578.04 650.04 567.22
  C 649.17 566.35 648.09 565.73 647.25 564.82
  C 643.20 560.44 638.80 556.61 634.64 552.29
  Q 631.52 549.03 628.10 545.80
  Q 622.09 540.10 616.64 535.05
  Q 616.00 534.45 615.38 533.86
  Q 609.14 527.88 603.10 522.40
  Q 591.10 511.49 579.31 500.48"
/>
<path stroke="#98b5c0" vector-effect="non-scaling-stroke" d="
  M 555.90 480.68
  L 534.79 464.72"
/>
<path stroke="#98b5c0" vector-effect="non-scaling-stroke" d="
  M 521.48 455.65
  Q 519.84 455.27 518.58 453.66"
/>
<path stroke="#76aab6" vector-effect="non-scaling-stroke" d="
  M 505.01 444.74
  L 480.02 429.52"
/>
<path stroke="#76aab6" vector-effect="non-scaling-stroke" d="
  M 466.37 421.25
  Q 451.71 412.72 435.79 406.15
  Q 435.00 405.82 435.45 406.55
  Q 440.36 414.45 444.92 422.32
  Q 447.21 426.26 449.24 430.30
  Q 451.30 434.40 453.55 438.23
  Q 454.15 439.25 454.61 440.41
  Q 455.04 441.52 455.65 442.65
  Q 459.95 450.60 462.81 459.04"
/>
<path stroke="#def4f5" vector-effect="non-scaling-stroke" d="
  M 508.30 447.42
  Q 507.43 447.31 507.00 448.04
  A 1.10 1.09 41.4 0 0 507.08 449.27
  C 512.79 456.69 518.70 464.35 523.41 472.15
  Q 542.35 503.50 550.83 538.13
  Q 554.28 552.26 555.76 568.75
  C 555.86 569.90 555.52 571.16 555.79 572.25
  Q 556.49 575.07 556.43 577.76
  Q 556.37 580.46 556.61 583.38
  Q 557.08 589.27 556.59 595.00
  Q 556.37 597.55 556.45 599.99
  Q 556.53 602.52 555.96 604.99
  C 555.49 607.05 555.80 609.23 555.59 611.38
  Q 552.39 645.31 540.06 677.00
  Q 529.71 703.58 515.22 727.05
  Q 502.72 747.31 487.19 767.26
  Q 475.73 781.97 463.10 795.84
  Q 458.39 801.02 454.78 804.78
  Q 450.73 808.98 446.66 813.17
  Q 442.56 817.41 438.33 821.43
  Q 419.97 838.87 403.61 851.82
  Q 397.62 856.57 392.05 860.61
  Q 371.42 875.59 347.79 892.08
  Q 346.79 892.78 345.58 892.82
  Q 345.10 892.83 344.69 893.09
  Q 342.49 894.48 340.43 895.96
  Q 338.85 897.10 336.36 897.14
  Q 334.19 897.18 332.04 897.05"
/>
<path stroke="#def4f5" vector-effect="non-scaling-stroke" d="
  M 1253.63 751.73
  Q 1249.12 752.12 1245.07 753.73
  Q 1241.63 755.10 1237.70 758.26
  Q 1222.32 770.62 1210.50 778.54
  Q 1190.08 792.22 1164.96 807.50
  Q 1156.20 812.83 1147.40 817.41
  Q 1130.77 826.06 1110.01 835.21
  Q 1054.56 859.66 998.90 879.47
  Q 983.57 884.92 974.16 887.93
  Q 966.75 890.30 958.89 892.79
  Q 951.24 895.21 943.50 897.29
  Q 930.54 900.77 918.48 903.38
  C 916.73 903.76 915.40 904.91 913.77 905.32
  Q 905.35 907.46 897.71 909.03
  Q 886.34 911.35 874.94 913.68
  Q 854.76 917.79 835.67 919.71
  Q 831.87 920.10 828.68 920.96
  Q 825.22 921.89 821.72 922.16
  Q 816.48 922.57 811.15 923.48
  Q 804.32 924.63 798.44 925.25
  Q 797.17 925.38 796.28 925.70
  Q 795.83 925.86 795.35 925.87
  Q 792.82 925.89 790.21 926.37
  Q 787.88 926.79 785.39 927.08
  Q 773.58 928.46 761.37 929.52
  C 758.59 929.76 755.90 929.60 753.21 929.92
  C 748.95 930.43 744.88 930.04 740.76 930.45
  Q 737.73 930.76 734.68 930.74
  C 730.38 930.71 726.14 931.32 721.80 931.31
  Q 717.81 931.30 713.71 931.54
  Q 708.41 931.85 702.50 931.92
  Q 701.72 931.93 700.88 931.97
  Q 690.22 932.46 678.03 932.27
  C 677.06 932.26 676.09 932.64 675.11 932.64
  Q 662.84 932.65 650.04 932.65
  C 648.74 932.65 647.59 932.24 646.27 932.24
  Q 627.96 932.24 609.84 932.24
  Q 609.34 932.24 608.92 931.95
  Q 608.74 931.82 608.51 931.81
  C 595.52 930.97 582.50 931.52 569.32 931.10
  C 555.42 930.66 542.97 930.74 529.69 930.52
  C 525.17 930.44 520.47 930.71 515.91 930.82
  Q 515.84 930.82 512.38 931.07
  Q 508.11 931.37 504.25 930.98
  Q 499.83 930.53 491.80 930.78
  C 487.77 930.91 484.26 931.56 480.38 932.37
  Q 478.72 932.71 477.49 933.81
  Q 477.11 934.14 476.61 934.21
  L 473.53 934.59"
/>
<path stroke="#98b5c0" vector-effect="non-scaling-stroke" d="
  M 1121.09 751.64
  Q 1118.88 753.00 1117.29 755.21"
/>
<path stroke="#98b5c0" vector-effect="non-scaling-stroke" d="
  M 1117.71 787.57
  L 1119.00 788.76"
/>
</g>
<path fill="#306b81" d="
  M 714.51 1108.96
  Q 721.07 1110.61 728.22 1110.75
  C 730.27 1110.79 732.97 1111.63 735.57 1111.01
  C 737.66 1110.51 739.52 1110.88 741.58 1110.67
  Q 756.29 1109.13 772.51 1102.14
  C 778.81 1099.43 783.83 1095.62 789.39 1091.98
  Q 800.15 1084.95 808.06 1082.30
  Q 815.25 1079.89 821.08 1079.57
  Q 824.23 1079.39 827.50 1079.38
  C 836.86 1079.35 846.02 1082.03 854.06 1086.89
  C 861.74 1091.54 868.80 1097.45 876.82 1101.29
  Q 895.69 1110.34 916.60 1111.52
  A 63.31 24.40 11.4 0 0 924.89 1111.75
  C 927.78 1111.73 930.73 1111.89 933.59 1111.39
  C 935.51 1111.06 937.29 1111.46 939.18 1110.93
  C 940.29 1110.63 941.24 1110.78 942.35 1110.61
  Q 952.56 1109.04 962.57 1105.92
  Q 977.36 1101.32 985.13 1097.88
  Q 995.39 1093.32 1001.32 1091.06
  Q 1012.18 1086.92 1025.59 1085.28
  Q 1027.73 1085.02 1029.92 1084.81
  Q 1039.29 1083.92 1050.73 1085.74
  Q 1067.65 1088.44 1081.31 1094.53
  Q 1087.27 1097.19 1093.60 1099.95
  Q 1107.35 1105.93 1123.94 1109.37
  Q 1129.10 1110.44 1134.60 1110.81
  Q 1134.97 1110.83 1135.28 1111.01
  Q 1135.62 1111.19 1136.00 1111.19
  C 1139.09 1111.21 1142.74 1110.85 1145.72 1111.63
  C 1147.39 1112.06 1148.76 1111.23 1150.40 1111.25
  Q 1155.33 1111.34 1160.25 1110.72
  Q 1184.63 1107.64 1204.77 1094.01
  Q 1212.13 1089.03 1219.53 1081.02
  Q 1228.22 1071.61 1235.02 1062.31
  Q 1254.55 1035.62 1271.29 1004.57
  Q 1286.34 976.67 1297.76 949.51
  Q 1316.39 905.24 1327.80 855.42
  Q 1332.49 834.98 1335.82 814.61
  Q 1337.58 803.88 1338.91 792.84
  Q 1339.01 792.03 1339.19 791.29
  C 1339.35 790.65 1339.10 789.93 1339.18 789.23
  Q 1340.04 782.06 1340.76 774.51
  Q 1341.27 769.22 1341.62 764.19
  Q 1341.82 761.50 1342.06 758.84
  Q 1342.31 756.20 1342.17 753.44
  C 1342.12 752.46 1342.63 751.87 1342.65 750.96
  Q 1342.75 746.95 1342.74 743.16
  C 1342.74 742.31 1343.24 741.79 1343.23 740.91
  Q 1343.15 734.34 1343.25 728.52
  C 1343.27 727.54 1343.71 726.90 1343.72 725.91
  Q 1343.75 711.22 1343.71 696.68
  C 1343.70 695.67 1343.21 694.83 1343.20 693.82
  Q 1343.19 688.29 1343.21 682.52
  C 1343.22 681.43 1342.62 680.61 1342.69 679.55
  Q 1342.89 676.70 1342.49 671.76
  Q 1340.93 652.42 1338.69 635.87
  Q 1332.48 590.16 1320.18 545.65
  Q 1310.28 509.82 1296.81 477.14
  Q 1291.45 464.15 1285.06 450.23
  Q 1271.74 421.21 1253.62 391.31
  C 1231.90 355.47 1206.79 321.80 1178.41 290.53
  Q 1177.63 289.68 1176.85 288.83
  Q 1163.97 274.82 1151.06 262.13
  Q 1117.64 229.30 1081.52 203.08
  Q 1053.41 182.68 1029.65 169.03
  Q 1019.78 163.36 1009.98 157.96
  C 1003.41 154.34 996.92 151.35 990.44 147.97
  Q 986.55 145.94 982.53 144.12
  Q 962.76 135.15 957.33 132.94
  Q 922.11 118.59 888.12 109.26
  Q 861.54 101.96 831.38 96.60
  Q 804.69 91.85 773.17 89.02
  Q 771.20 88.84 769.87 88.81
  Q 768.25 88.76 766.61 88.50
  Q 763.57 88.03 760.45 88.30
  A 1.70 1.63 55.0 0 1 759.55 88.12
  Q 758.56 87.61 757.46 87.69
  Q 753.93 87.95 750.43 87.55
  Q 747.46 87.20 744.61 87.20
  Q 726.86 87.20 708.51 87.19
  C 707.26 87.19 706.42 87.86 705.18 87.79
  Q 700.59 87.50 696.62 88.01
  Q 694.29 88.31 691.76 88.29
  Q 689.97 88.27 688.30 88.56
  C 685.99 88.95 683.78 88.57 681.45 89.08
  Q 679.82 89.43 678.07 89.30
  C 676.45 89.17 675.26 89.94 673.63 89.84
  Q 672.63 89.78 671.72 89.88
  Q 639.17 93.50 624.93 96.06
  Q 591.27 102.11 566.77 108.93
  Q 539.74 116.45 526.22 121.23
  C 514.42 125.39 502.12 129.83 490.23 134.85
  Q 473.79 141.79 467.60 144.72
  Q 428.25 163.31 404.59 178.09
  Q 329.35 225.09 270.35 289.59
  Q 256.16 305.11 240.77 324.47
  Q 234.47 332.39 228.70 340.28
  Q 209.20 366.94 192.69 394.67
  Q 182.18 412.33 173.40 429.78
  C 166.30 443.89 159.52 457.99 153.37 472.36
  Q 117.78 555.51 107.70 649.09
  Q 106.63 659.03 105.91 669.48
  Q 105.74 672.03 105.49 674.53
  Q 105.25 676.93 105.26 679.01
  Q 105.26 681.16 105.00 683.48
  Q 104.53 687.60 104.81 691.75
  C 104.91 693.30 104.30 694.55 104.29 696.03
  Q 104.27 715.20 104.28 733.55
  Q 104.28 736.77 104.59 739.50
  Q 104.92 742.42 104.79 745.43
  Q 104.70 747.72 105.07 750.02
  C 105.53 752.83 104.97 755.66 105.57 758.53
  C 106.03 760.72 105.50 762.90 106.04 765.12
  Q 106.42 766.66 106.32 768.30
  Q 106.22 769.94 106.59 771.74
  Q 106.99 773.64 106.77 775.54
  Q 106.72 776.02 106.93 776.46
  C 107.52 777.73 107.23 779.15 107.38 780.52
  Q 115.86 860.16 142.67 936.23
  Q 142.87 936.80 142.50 937.27
  L 112.05 975.26
  A 1.41 1.41 0.0 0 1 109.69 975.01
  Q 92.46 940.64 81.70 903.26
  Q 64.00 841.73 57.81 777.24
  C 57.68 775.90 57.88 774.74 57.36 773.46
  Q 57.18 773.01 57.23 772.54
  Q 57.43 770.65 57.05 768.80
  C 56.56 766.41 56.98 764.21 56.53 761.91
  C 56.00 759.23 56.46 756.56 56.00 753.85
  Q 55.50 750.91 55.80 747.33
  C 55.93 745.81 55.27 744.69 55.26 743.24
  Q 55.24 736.91 55.26 731.00
  C 55.26 730.33 54.77 729.73 54.77 728.98
  Q 54.75 714.79 54.77 702.60
  C 54.77 701.52 55.37 700.60 55.31 699.43
  Q 55.00 692.38 55.54 686.72
  C 55.84 683.57 55.55 680.47 56.04 677.31
  C 56.43 674.83 56.04 672.41 56.52 669.93
  Q 56.83 668.32 56.79 666.53
  Q 56.75 665.08 56.96 663.52
  Q 57.17 662.02 57.30 660.51
  Q 58.28 649.26 59.72 637.62
  Q 74.82 516.18 130.10 408.09
  Q 140.70 387.38 156.46 361.23
  Q 161.61 352.69 167.16 344.32
  Q 192.58 305.99 217.58 276.31
  Q 228.79 263.01 243.04 247.68
  Q 250.00 240.19 256.96 233.32
  Q 319.64 171.41 396.00 127.27
  Q 409.32 119.57 425.54 111.14
  Q 437.54 104.92 463.26 93.51
  Q 483.26 84.64 504.53 77.25
  C 515.20 73.54 526.02 69.83 536.94 66.64
  Q 554.04 61.65 568.64 57.95
  Q 583.42 54.20 607.99 49.48
  Q 629.16 45.42 651.66 42.77
  Q 660.33 41.75 668.53 41.12
  Q 670.63 40.96 672.57 40.71
  Q 674.09 40.51 675.51 40.53
  Q 677.00 40.56 678.41 40.32
  C 680.49 39.98 683.87 40.57 685.53 39.72
  A 1.83 1.81 33.2 0 1 686.51 39.52
  Q 690.02 39.80 693.68 39.41
  Q 697.01 39.05 699.32 39.11
  C 701.09 39.16 704.89 39.47 706.30 38.83
  Q 706.75 38.63 707.24 38.63
  Q 725.67 38.61 747.50 38.82
  Q 748.59 38.84 749.76 38.93
  Q 753.46 39.21 757.16 39.18
  Q 759.53 39.16 761.70 39.45
  Q 763.89 39.75 766.40 39.62
  Q 768.12 39.53 770.03 39.88
  C 772.53 40.34 774.96 39.83 777.50 40.37
  Q 779.40 40.76 781.45 40.58
  C 783.09 40.44 784.32 41.19 786.02 41.09
  Q 786.85 41.04 787.81 41.12
  Q 798.17 42.03 808.00 43.23
  Q 843.02 47.52 879.63 56.02
  Q 888.00 57.96 896.79 60.43
  C 909.01 63.86 920.91 67.13 932.92 71.22
  Q 943.39 74.78 954.61 78.90
  Q 984.32 89.81 1014.89 104.89
  Q 1078.84 136.46 1136.07 181.63
  Q 1144.31 188.13 1151.49 194.44
  Q 1176.71 216.58 1196.19 236.74
  Q 1215.70 256.95 1234.72 279.94
  Q 1250.34 298.81 1265.59 320.44
  Q 1299.99 369.22 1323.78 418.16
  Q 1345.79 463.42 1361.22 510.98
  Q 1376.75 558.81 1384.68 607.18
  Q 1387.36 623.52 1389.32 640.94
  Q 1390.15 648.34 1390.67 655.39
  Q 1390.83 657.59 1391.11 659.59
  Q 1391.32 661.05 1391.26 662.52
  Q 1391.20 663.97 1391.47 665.37
  Q 1391.82 667.17 1391.80 669.27
  Q 1391.78 671.13 1392.04 673.16
  Q 1392.45 676.39 1392.21 679.97
  C 1392.10 681.53 1392.74 682.85 1392.74 684.39
  Q 1392.74 690.53 1392.76 696.54
  Q 1392.76 697.00 1393.00 697.39
  Q 1393.07 697.49 1393.13 697.60
  Q 1393.22 697.74 1393.22 697.91
  Q 1393.25 711.04 1393.23 724.01
  Q 1393.22 724.50 1393.02 724.96
  Q 1392.74 725.56 1392.74 726.23
  Q 1392.77 732.50 1392.75 739.07
  C 1392.74 739.74 1392.26 740.19 1392.26 740.80
  Q 1392.27 743.51 1392.25 746.00
  Q 1392.23 747.68 1391.93 749.93
  C 1391.57 752.68 1391.86 755.30 1391.43 758.02
  C 1391.12 760.01 1391.35 761.85 1390.98 763.91
  C 1390.58 766.15 1391.01 768.22 1390.44 770.43
  Q 1390.07 771.88 1390.27 773.46
  Q 1390.34 774.01 1390.16 774.54
  Q 1389.75 775.69 1389.73 776.85
  Q 1389.71 778.02 1389.59 779.19
  Q 1388.58 789.86 1387.30 799.27
  Q 1380.16 851.99 1368.02 894.37
  Q 1351.63 951.56 1326.98 1001.79
  Q 1301.38 1053.94 1267.27 1100.00
  Q 1248.11 1125.87 1225.07 1151.29
  Q 1223.82 1152.66 1222.61 1153.88
  C 1221.32 1155.20 1220.37 1156.65 1219.11 1157.99
  Q 1205.63 1172.39 1193.63 1184.21
  Q 1176.38 1201.21 1156.01 1218.31
  Q 1095.49 1269.13 1024.90 1304.48
  Q 996.01 1318.95 966.66 1330.28
  Q 948.66 1337.23 932.96 1342.34
  Q 923.42 1345.45 913.18 1348.41
  Q 895.45 1353.54 876.81 1357.65
  Q 864.80 1360.29 853.96 1362.46
  Q 823.80 1368.49 791.25 1371.49
  Q 784.94 1372.07 778.82 1372.58
  Q 777.00 1372.73 775.19 1372.78
  C 773.41 1372.83 771.84 1373.54 770.10 1373.38
  Q 767.61 1373.16 765.35 1373.60
  Q 763.19 1374.02 761.12 1373.92
  Q 758.18 1373.78 755.37 1374.12
  C 749.36 1374.86 743.00 1374.45 736.94 1374.48
  C 736.13 1374.49 735.57 1374.88 734.64 1374.91
  Q 728.07 1375.11 720.08 1374.94
  Q 719.72 1374.93 719.41 1374.76
  Q 718.94 1374.49 718.40 1374.49
  Q 711.81 1374.44 704.86 1374.48
  Q 702.23 1374.49 699.70 1374.13
  C 696.57 1373.68 693.41 1374.24 690.23 1373.62
  C 687.59 1373.10 684.98 1373.70 682.28 1373.07
  C 680.02 1372.54 677.81 1373.06 675.51 1372.50
  C 673.54 1372.02 671.56 1372.59 669.59 1372.03
  Q 668.33 1371.67 666.86 1371.70
  C 664.67 1371.75 662.71 1371.03 660.46 1371.26
  Q 659.97 1371.31 659.51 1371.12
  Q 658.58 1370.72 657.60 1370.69
  Q 656.77 1370.67 655.93 1370.58
  Q 627.43 1367.58 606.01 1363.18
  Q 569.37 1355.65 558.17 1352.36
  C 542.98 1347.90 527.70 1343.63 512.77 1338.39
  Q 497.48 1333.02 488.37 1329.58
  Q 465.44 1320.92 443.94 1310.64
  C 431.42 1304.65 419.10 1298.25 406.86 1291.33
  Q 361.34 1265.57 319.63 1232.80
  Q 295.04 1213.48 273.90 1192.62
  Q 249.93 1168.97 227.82 1143.29
  Q 218.50 1132.48 209.64 1121.45
  Q 204.93 1115.59 200.55 1108.73
  A 0.80 0.80 0.0 0 1 200.60 1107.81
  Q 201.74 1106.41 203.00 1105.22
  Q 218.09 1090.91 236.62 1076.37
  A 2.21 2.21 0.0 0 1 239.62 1076.62
  Q 247.58 1085.38 257.19 1092.61
  Q 265.04 1098.52 274.36 1102.29
  Q 288.87 1108.15 303.75 1110.44
  Q 309.34 1111.30 314.92 1111.23
  Q 316.71 1111.21 318.45 1111.64
  C 320.22 1112.06 321.83 1111.23 323.58 1111.25
  Q 329.58 1111.32 335.41 1110.46
  Q 359.16 1106.98 383.50 1096.11
  Q 401.75 1087.97 420.38 1085.50
  Q 422.33 1085.24 424.04 1085.17
  Q 425.26 1085.12 426.42 1084.87
  C 428.82 1084.35 431.66 1084.60 434.10 1084.60
  Q 435.97 1084.60 437.80 1084.96
  Q 439.79 1085.35 441.90 1085.11
  Q 442.37 1085.05 442.79 1085.32
  Q 443.18 1085.56 443.65 1085.62
  C 461.32 1087.73 478.34 1096.08 495.17 1102.57
  Q 511.41 1108.84 529.37 1111.02
  Q 531.05 1111.22 532.65 1111.17
  C 534.32 1111.12 535.46 1111.73 537.12 1111.72
  Q 543.24 1111.69 549.41 1111.72
  C 551.65 1111.73 553.56 1110.94 555.83 1111.24
  Q 556.29 1111.30 556.74 1111.14
  C 558.15 1110.62 559.36 1110.79 560.80 1110.57
  Q 579.23 1107.70 595.12 1099.38
  Q 599.73 1096.97 604.61 1093.17
  C 612.95 1086.66 622.73 1081.93 633.10 1080.40
  Q 636.39 1079.91 640.07 1079.94
  C 643.03 1079.97 646.15 1079.81 648.97 1080.19
  Q 660.93 1081.83 670.63 1087.69
  C 677.58 1091.89 683.99 1097.00 690.88 1100.59
  Q 699.72 1105.20 709.50 1107.69
  Q 711.96 1108.32 714.51 1108.96
  Z
  M 845.28 1148.15
  Q 832.70 1150.95 822.09 1155.55
  Q 801.80 1164.34 785.60 1170.78
  Q 759.87 1181.01 731.46 1179.49
  Q 713.50 1178.53 697.80 1173.29
  Q 684.79 1168.95 675.94 1164.44
  Q 646.47 1149.43 614.71 1145.02
  C 613.35 1144.83 612.07 1145.03 610.73 1144.70
  C 608.41 1144.13 606.13 1144.63 603.83 1144.23
  C 599.36 1143.45 594.00 1143.95 589.43 1143.92
  Q 588.01 1143.91 586.59 1144.21
  C 584.33 1144.69 581.76 1144.38 579.34 1144.64
  Q 558.73 1146.83 539.19 1153.41
  Q 531.36 1156.04 522.17 1160.19
  Q 510.60 1165.41 499.65 1170.52
  Q 490.17 1174.95 481.53 1177.73
  Q 467.68 1182.18 453.73 1184.24
  Q 450.18 1184.77 447.12 1185.24
  C 445.57 1185.48 444.03 1185.17 442.56 1185.51
  Q 441.01 1185.88 439.32 1185.88
  Q 425.76 1185.88 422.89 1185.87
  A 11.89 5.98 2.7 0 1 421.21 1185.81
  Q 414.43 1185.31 409.53 1184.52
  Q 396.90 1182.48 385.14 1180.23
  C 383.78 1179.96 382.51 1180.28 381.25 1179.92
  Q 380.00 1179.55 378.70 1179.56
  Q 371.45 1179.61 364.46 1179.56
  C 363.36 1179.55 362.61 1180.16 361.57 1180.07
  Q 360.73 1179.99 359.87 1180.09
  Q 349.97 1181.21 341.22 1183.77
  Q 340.02 1184.12 341.06 1184.82
  Q 348.61 1189.91 355.87 1195.43
  Q 371.82 1207.57 389.97 1215.74
  Q 406.02 1222.95 423.28 1226.01
  Q 428.65 1226.96 434.38 1227.76
  C 435.98 1227.98 437.52 1227.70 439.07 1228.07
  Q 440.75 1228.48 442.43 1228.47
  Q 450.25 1228.41 458.08 1228.46
  Q 458.63 1228.46 459.10 1228.18
  Q 459.57 1227.89 460.14 1227.92
  Q 462.37 1228.01 465.59 1227.63
  Q 489.76 1224.77 512.20 1215.51
  Q 532.27 1207.23 545.71 1202.46
  Q 560.89 1197.07 579.28 1194.87
  C 580.65 1194.70 581.98 1194.97 583.27 1194.40
  Q 583.73 1194.19 584.23 1194.25
  Q 586.32 1194.46 588.42 1194.12
  C 593.48 1193.29 599.33 1193.79 604.57 1193.79
  C 606.21 1193.79 607.44 1194.31 609.11 1194.31
  Q 610.90 1194.31 612.64 1194.48
  Q 631.89 1196.38 650.59 1203.62
  Q 663.24 1208.51 676.97 1214.19
  Q 687.22 1218.43 695.61 1220.76
  Q 706.78 1223.87 717.59 1225.58
  C 719.01 1225.81 720.40 1225.54 721.74 1226.14
  Q 722.23 1226.36 722.77 1226.28
  Q 724.31 1226.07 725.71 1226.44
  C 728.71 1227.22 732.89 1226.77 736.00 1226.78
  Q 736.53 1226.78 737.00 1227.01
  Q 738.27 1227.64 739.50 1227.04
  Q 739.94 1226.83 740.44 1226.84
  Q 752.61 1227.05 766.74 1224.21
  Q 783.14 1220.91 797.59 1214.77
  C 808.24 1210.25 819.16 1205.91 830.00 1202.20
  Q 846.16 1196.66 864.40 1194.71
  Q 868.83 1194.24 873.06 1194.26
  C 875.76 1194.27 878.28 1193.44 881.05 1193.85
  Q 883.74 1194.25 886.63 1194.28
  Q 890.15 1194.32 893.85 1194.69
  Q 917.19 1197.03 937.66 1205.79
  Q 950.24 1211.17 962.75 1216.22
  Q 981.21 1223.68 1004.62 1227.20
  Q 1005.76 1227.37 1006.89 1227.30
  C 1008.74 1227.18 1010.29 1227.90 1012.16 1227.89
  Q 1018.96 1227.86 1025.83 1227.87
  C 1027.48 1227.87 1028.69 1227.22 1030.37 1227.31
  Q 1031.93 1227.39 1033.64 1227.06
  Q 1035.22 1226.75 1037.04 1226.50
  Q 1050.19 1224.74 1064.77 1219.45
  C 1072.94 1216.49 1081.17 1212.25 1088.59 1207.86
  Q 1105.23 1198.01 1122.85 1184.19
  A 0.75 0.74 33.8 0 0 1122.59 1182.89
  Q 1116.00 1181.03 1109.21 1180.28
  Q 1106.00 1179.92 1102.71 1179.72
  Q 1096.29 1179.32 1090.73 1179.70
  Q 1083.78 1180.16 1078.60 1181.18
  Q 1068.07 1183.26 1057.58 1185.09
  Q 1056.49 1185.29 1055.36 1185.29
  C 1053.43 1185.30 1051.77 1185.85 1049.82 1185.86
  Q 1042.06 1185.91 1034.02 1185.85
  C 1032.58 1185.84 1031.45 1185.24 1030.00 1185.31
  Q 1028.52 1185.39 1027.00 1185.21
  Q 1007.63 1182.91 989.11 1175.25
  Q 974.93 1169.39 960.47 1162.26
  C 946.83 1155.53 933.70 1151.41 918.30 1147.91
  Q 903.84 1144.63 892.36 1144.29
  Q 892.03 1144.28 891.69 1144.11
  Q 891.35 1143.94 890.95 1143.94
  Q 882.10 1143.93 872.74 1143.94
  Q 871.55 1143.95 870.37 1144.17
  Q 869.15 1144.40 867.90 1144.45
  Q 859.08 1144.79 845.80 1147.84
  Q 845.67 1147.87 845.58 1147.97
  Q 845.51 1148.03 845.43 1148.08
  Q 845.36 1148.13 845.28 1148.15
  Z
  M 560.49 1301.53
  C 572.63 1304.88 584.36 1307.73 596.29 1310.57
  Q 604.19 1312.45 611.05 1313.75
  Q 640.88 1319.39 667.34 1322.14
  Q 668.20 1322.23 669.05 1322.55
  Q 669.50 1322.72 669.98 1322.68
  Q 672.29 1322.53 674.54 1322.99
  C 676.28 1323.34 677.83 1323.07 679.50 1323.39
  C 681.96 1323.87 684.18 1323.49 686.43 1324.01
  C 688.94 1324.59 691.37 1324.05 693.83 1324.50
  C 696.94 1325.08 700.25 1324.76 703.48 1324.82
  Q 703.66 1324.83 703.82 1324.91
  Q 703.96 1324.98 704.10 1325.05
  Q 704.54 1325.29 705.05 1325.29
  Q 712.07 1325.28 718.70 1325.30
  C 719.58 1325.31 720.08 1325.77 720.94 1325.77
  Q 731.53 1325.80 742.10 1325.76
  C 743.03 1325.76 743.79 1325.32 744.70 1325.31
  Q 751.19 1325.28 758.03 1325.29
  C 758.95 1325.29 759.85 1324.67 760.50 1324.72
  Q 765.36 1325.10 769.99 1324.44
  C 772.05 1324.14 774.10 1324.51 776.08 1324.14
  Q 778.27 1323.74 780.46 1323.72
  Q 782.98 1323.71 785.50 1323.43
  Q 793.15 1322.58 801.74 1321.60
  Q 825.00 1318.95 850.42 1314.49
  Q 859.89 1312.83 869.95 1310.07
  Q 886.97 1305.40 905.56 1301.14
  Q 906.05 1301.03 906.21 1300.55
  Q 906.46 1299.80 905.25 1299.43
  A 1.56 1.30 -31.7 0 0 904.83 1299.37
  Q 894.43 1299.38 884.32 1299.38
  C 881.30 1299.39 878.52 1298.66 875.41 1298.90
  C 873.48 1299.05 871.89 1298.34 869.99 1298.38
  Q 868.09 1298.43 866.04 1298.18
  Q 863.59 1297.89 860.99 1297.62
  Q 845.19 1295.99 830.84 1292.10
  C 818.91 1288.87 806.74 1283.35 795.06 1278.81
  Q 774.04 1270.64 750.85 1268.56
  C 749.24 1268.41 747.60 1268.63 746.05 1268.31
  C 741.95 1267.45 736.89 1267.94 732.76 1267.93
  Q 730.53 1267.92 728.33 1268.30
  Q 726.10 1268.68 723.74 1268.43
  Q 723.23 1268.38 722.76 1268.58
  C 721.40 1269.14 720.12 1268.90 718.74 1269.08
  Q 708.36 1270.45 697.99 1272.97
  Q 689.55 1275.01 678.46 1279.27
  Q 663.78 1284.90 646.22 1290.57
  Q 634.02 1294.51 621.01 1296.22
  Q 613.40 1297.22 606.25 1297.83
  Q 604.93 1297.95 603.56 1298.18
  Q 602.22 1298.41 600.93 1298.35
  Q 599.15 1298.28 597.47 1298.63
  C 594.73 1299.19 592.11 1298.62 589.41 1299.14
  C 585.69 1299.84 581.53 1299.21 577.66 1299.52
  Q 573.72 1299.85 570.11 1299.82
  Q 564.69 1299.78 559.47 1299.95
  Q 558.92 1299.97 559.14 1300.47
  Q 559.47 1301.25 560.49 1301.53
  Z"
/>
<path fill="#306b81" d="
  M 946.56 611.91
  L 946.56 611.92
  Q 946.54 612.15 946.78 612.18
  Q 960.91 614.23 975.25 616.56
  Q 1016.23 623.20 1049.99 628.29
  Q 1058.95 629.64 1070.71 632.10
  Q 1092.43 636.65 1109.92 640.81
  Q 1122.49 643.80 1135.82 647.35
  Q 1148.60 650.77 1158.76 654.11
  Q 1176.80 660.05 1191.48 665.77
  Q 1210.28 673.09 1227.70 681.36
  Q 1244.06 689.12 1259.40 697.92
  Q 1269.54 703.73 1275.89 708.97
  C 1285.10 716.59 1289.70 726.37 1289.52 738.47
  C 1289.50 739.87 1288.90 741.05 1288.97 742.51
  Q 1289.00 743.33 1288.84 744.13
  Q 1286.11 757.88 1277.16 771.84
  Q 1261.07 796.95 1240.71 817.12
  Q 1233.53 824.23 1225.80 831.59
  Q 1218.45 838.58 1210.87 844.92
  Q 1155.34 891.36 1094.00 923.70
  Q 1082.14 929.95 1068.60 936.41
  Q 1046.85 946.79 1018.37 957.54
  Q 1009.49 960.89 999.35 964.23
  Q 988.79 967.72 978.24 970.97
  Q 964.00 975.36 937.74 981.65
  Q 921.80 985.48 903.83 988.53
  Q 894.36 990.14 884.09 991.84
  Q 866.79 994.70 849.00 996.68
  Q 840.99 997.58 833.02 998.14
  Q 830.71 998.30 828.49 998.58
  C 826.06 998.88 823.72 998.59 821.26 999.00
  C 818.67 999.44 816.06 999.16 813.30 999.51
  Q 809.62 999.97 805.75 999.67
  C 804.30 999.56 803.12 1000.25 801.74 1000.21
  Q 795.44 1000.01 789.50 1000.41
  Q 788.58 1000.47 787.73 1000.49
  Q 764.45 1001.00 748.51 1000.51
  Q 747.52 1000.48 746.49 1000.42
  Q 739.29 1000.01 732.92 1000.22
  Q 732.50 1000.23 732.15 999.99
  Q 732.04 999.91 731.93 999.83
  Q 731.78 999.74 731.60 999.74
  C 727.95 999.70 724.43 999.92 720.87 999.43
  Q 718.58 999.11 716.13 999.21
  Q 714.11 999.29 711.80 998.93
  Q 709.97 998.64 708.06 998.70
  Q 706.44 998.74 704.96 998.49
  Q 703.10 998.18 700.96 998.21
  Q 699.14 998.24 697.12 997.88
  C 695.30 997.57 693.57 997.90 691.69 997.52
  Q 689.55 997.08 687.32 997.27
  C 686.09 997.37 685.32 996.65 684.21 996.75
  Q 682.16 996.94 680.29 996.49
  C 678.59 996.08 676.86 996.57 675.30 996.01
  C 674.02 995.55 672.61 995.78 671.24 995.63
  Q 660.07 994.39 648.91 993.02
  Q 648.29 992.95 647.70 992.68
  C 647.21 992.46 646.62 992.60 646.08 992.52
  Q 594.99 985.17 542.72 979.30
  Q 512.71 975.94 502.21 975.32
  Q 500.85 975.24 499.46 974.88
  Q 498.95 974.75 498.43 974.78
  Q 496.15 974.93 494.03 974.57
  C 491.47 974.13 489.06 974.50 486.58 974.04
  C 484.04 973.56 481.61 973.93 479.10 973.67
  Q 475.62 973.32 474.81 973.29
  Q 470.13 973.11 465.75 973.29
  C 464.31 973.36 463.24 972.78 462.07 972.78
  Q 450.23 972.75 438.50 972.83
  Q 438.07 972.83 437.69 972.99
  Q 437.13 973.22 436.53 973.23
  Q 432.49 973.27 428.47 973.28
  Q 426.10 973.29 423.20 973.61
  Q 420.85 973.87 418.05 973.75
  Q 416.52 973.68 415.06 974.04
  C 412.86 974.57 410.60 974.08 408.24 974.57
  Q 406.33 974.97 404.19 974.74
  A 2.12 2.12 0.0 0 0 403.40 974.79
  Q 402.16 975.12 400.61 975.25
  Q 381.19 976.91 361.90 980.55
  Q 342.59 984.19 324.21 989.04
  Q 316.17 991.16 307.72 994.06
  C 300.43 996.56 293.04 998.85 285.84 1001.65
  Q 258.75 1012.18 236.51 1025.08
  C 214.58 1037.81 193.70 1053.90 177.10 1071.77
  Q 165.74 1083.99 155.29 1098.95
  Q 149.50 1107.22 144.78 1115.69
  Q 120.44 1159.34 115.30 1208.50
  Q 115.12 1210.23 114.90 1211.04
  A 2.96 2.93 51.0 0 0 114.80 1212.06
  Q 114.96 1214.10 114.56 1215.97
  Q 114.18 1217.79 114.30 1219.55
  Q 114.45 1221.58 114.11 1223.42
  Q 113.78 1225.26 113.78 1227.10
  Q 113.79 1236.55 113.79 1245.77
  Q 113.79 1247.69 114.16 1249.69
  C 114.47 1251.38 114.27 1253.29 114.40 1255.09
  Q 116.56 1283.67 124.58 1310.76
  Q 131.86 1335.35 144.89 1356.33
  Q 148.23 1361.71 151.52 1365.92
  Q 155.14 1370.54 157.57 1374.90
  Q 159.51 1378.40 160.29 1383.97
  Q 160.36 1384.52 160.07 1384.99
  Q 159.66 1385.65 159.71 1386.47
  A 2.45 2.33 -37.4 0 1 159.53 1387.60
  Q 158.70 1389.60 157.01 1391.42
  Q 150.88 1398.03 142.63 1394.70
  Q 138.30 1392.95 135.12 1389.24
  Q 109.78 1359.62 94.75 1324.09
  Q 85.04 1301.12 80.79 1278.19
  Q 79.00 1268.51 77.51 1257.14
  Q 77.22 1254.97 77.32 1252.88
  Q 77.34 1252.47 77.17 1252.11
  Q 77.09 1251.93 76.96 1251.78
  A 0.91 0.90 -61.3 0 1 76.77 1251.12
  C 77.06 1248.17 76.19 1245.53 76.32 1242.59
  Q 76.42 1240.47 76.13 1238.47
  Q 75.83 1236.37 75.83 1234.04
  Q 75.84 1224.94 75.79 1214.97
  Q 75.78 1212.77 76.15 1210.31
  C 76.48 1208.19 76.29 1205.94 76.44 1203.75
  Q 79.26 1163.07 91.79 1124.52
  Q 94.79 1115.31 98.36 1105.39
  Q 114.90 1059.41 135.91 1022.85
  Q 156.70 986.67 185.14 950.17
  Q 206.45 922.83 212.33 915.79
  Q 242.71 879.38 275.68 843.44
  Q 280.85 837.80 285.56 832.45
  Q 290.46 826.88 295.46 821.46
  Q 296.20 820.65 296.91 819.90
  Q 326.25 788.64 350.28 757.78
  Q 380.85 718.51 402.60 673.65
  Q 404.12 670.52 409.20 658.25
  Q 425.35 619.27 429.27 575.50
  C 429.45 573.55 429.13 571.45 429.57 569.64
  Q 429.85 568.47 429.85 567.37
  Q 429.88 554.65 429.89 541.29
  C 429.90 538.23 429.14 535.54 429.44 532.42
  C 429.53 531.51 429.13 530.85 429.06 529.96
  Q 427.38 509.20 422.30 489.00
  Q 414.04 456.10 396.19 426.50
  Q 387.09 411.42 375.79 397.65
  C 374.91 396.58 374.35 395.49 373.42 394.49
  Q 367.70 388.33 362.83 382.59
  Q 360.96 380.38 358.57 378.33
  Q 356.59 376.64 354.58 374.70
  Q 336.94 357.71 315.95 343.34
  Q 314.48 342.34 316.17 341.78
  L 317.16 341.44
  Q 317.68 341.27 318.23 341.27
  Q 325.69 341.24 333.30 341.24
  Q 335.50 341.25 337.70 341.57
  Q 339.91 341.90 342.20 341.75
  Q 343.71 341.65 345.33 342.07
  C 346.85 342.47 348.37 342.10 349.93 342.36
  Q 352.51 342.81 355.11 343.05
  Q 357.83 343.31 360.52 343.75
  Q 407.34 351.44 451.63 369.26
  C 461.70 373.32 471.83 377.62 481.68 382.48
  Q 512.19 397.53 537.77 414.71
  Q 554.82 426.15 574.04 440.83
  Q 587.39 451.03 606.71 467.42
  Q 614.41 473.96 621.69 480.64
  Q 646.62 503.49 672.10 527.13
  Q 690.05 543.79 707.10 559.27
  Q 712.19 563.89 717.17 568.63
  Q 739.45 589.85 764.07 609.16
  Q 787.19 627.30 813.17 643.07
  C 822.12 648.50 831.51 653.05 840.89 657.52
  Q 850.42 662.07 862.81 666.42
  Q 872.98 670.00 881.92 672.25
  Q 901.38 677.14 923.27 679.25
  Q 924.70 679.39 925.62 679.58
  Q 926.78 679.82 927.95 679.83
  C 929.31 679.84 931.67 679.58 932.85 680.02
  Q 933.72 680.36 934.58 680.37
  Q 944.32 680.49 955.41 680.36
  Q 955.66 680.36 955.68 680.10
  L 955.70 679.81
  Q 955.72 679.59 955.50 679.58
  Q 934.54 678.02 917.64 673.19
  Q 896.30 667.10 880.03 660.15
  Q 871.30 656.42 862.23 652.13
  Q 856.56 649.45 850.77 646.23
  C 845.76 643.45 840.58 640.85 835.68 637.92
  Q 807.13 620.85 780.97 600.27
  Q 754.31 579.30 731.26 557.93
  Q 707.76 536.14 688.45 517.75
  Q 685.00 514.46 681.73 511.52
  Q 678.15 508.30 674.65 505.00
  Q 660.69 491.82 647.00 479.31
  A 1.58 1.58 0.0 0 1 646.67 477.39
  Q 661.35 450.33 669.82 421.39
  Q 677.88 393.82 679.75 364.30
  C 679.81 363.43 679.55 361.21 679.89 359.82
  Q 680.18 358.64 680.19 357.97
  Q 680.36 347.56 680.16 338.01
  Q 680.14 336.88 679.83 334.30
  C 679.53 331.87 679.89 329.44 679.47 326.91
  C 679.13 324.85 679.35 322.93 679.00 320.85
  Q 678.81 319.67 678.68 318.30
  Q 676.99 300.53 673.23 284.45
  C 666.08 253.95 652.53 224.38 634.58 199.17
  Q 632.52 196.28 636.00 196.98
  Q 671.64 204.10 703.00 221.02
  Q 726.67 233.79 747.80 248.74
  Q 763.59 259.91 777.60 272.43
  Q 816.19 306.90 845.17 342.90
  Q 872.14 376.41 895.68 412.26
  Q 914.23 440.50 932.84 470.96
  Q 938.09 479.54 942.98 488.02
  Q 961.15 519.51 981.42 550.74
  Q 997.57 575.62 1010.64 591.31
  Q 1020.53 603.18 1032.64 614.36
  Q 1033.49 615.14 1033.51 615.22
  Q 1033.99 616.87 1032.31 616.51
  Q 1027.17 615.43 1022.24 614.61
  Q 1020.77 614.37 1019.25 614.41
  C 1017.78 614.46 1016.69 613.78 1015.20 613.88
  Q 1013.19 614.02 1011.30 613.68
  C 1008.72 613.21 1006.25 613.59 1003.69 613.16
  Q 1001.77 612.84 999.86 612.82
  Q 996.46 612.78 993.09 612.51
  Q 987.69 612.09 980.86 612.34
  C 979.87 612.38 978.99 611.77 978.07 611.78
  Q 962.44 611.81 946.83 611.67
  Q 946.58 611.66 946.56 611.91
  Z
  M 462.81 459.04
  Q 482.55 505.80 488.78 556.20
  C 489.12 558.98 489.14 561.79 489.59 564.52
  Q 490.11 567.72 490.09 570.62
  Q 490.07 573.50 490.50 576.24
  Q 490.93 579.03 491.01 581.72
  Q 491.46 596.52 491.25 611.41
  Q 491.24 611.62 491.43 611.70
  Q 491.60 611.77 491.70 611.79
  Q 491.91 612.24 491.64 612.74
  Q 491.27 612.53 491.21 613.52
  Q 491.07 616.18 491.03 618.85
  Q 490.98 621.51 490.54 623.98
  Q 489.93 627.41 490.12 631.08
  C 490.25 633.53 489.27 635.46 489.40 637.99
  Q 489.42 638.35 489.81 638.28
  Q 489.61 638.82 489.93 638.73
  Q 489.38 638.65 489.34 639.01
  Q 485.40 673.08 474.31 705.52
  Q 471.78 712.93 464.33 732.12
  Q 460.20 741.42 457.46 747.00
  Q 452.58 756.93 445.98 767.73
  L 421.22 804.84
  Q 407.77 823.10 388.12 844.37
  Q 382.18 850.80 380.33 852.40
  Q 378.75 852.66 378.18 854.60
  C 377.01 855.80 375.59 856.71 374.50 858.03
  Q 371.65 861.48 368.36 864.37
  Q 365.39 866.97 362.46 869.80
  Q 351.19 880.63 339.49 890.40
  Q 336.86 891.18 335.25 893.93
  L 332.04 897.05
  L 315.10 910.37
  Q 315.03 910.29 314.84 910.25
  Q 314.53 910.20 314.28 910.39
  L 290.17 929.29
  L 268.05 946.02
  Q 260.79 950.52 254.52 956.38
  L 223.46 981.43
  Q 211.32 990.76 200.37 1001.18
  Q 198.95 1003.62 196.10 1005.04
  A 0.42 0.41 -39.6 0 0 196.03 1005.74
  L 196.34 1005.98
  A 0.29 0.27 46.8 0 0 196.66 1006.00
  L 203.95 1001.53
  Q 211.91 997.61 219.10 992.46
  Q 221.17 990.71 223.95 989.74
  L 241.60 980.75
  L 248.16 977.43
  Q 256.35 974.21 264.34 970.88
  Q 266.64 969.92 268.75 968.57
  L 276.51 965.41
  L 302.43 956.75
  L 315.69 952.72
  L 348.59 945.00
  L 368.69 941.15
  Q 381.24 939.81 393.67 938.22
  Q 394.52 938.12 395.38 938.17
  C 396.74 938.25 397.97 937.61 399.41 937.54
  Q 403.26 937.36 407.36 936.97
  Q 408.19 936.89 409.02 936.80
  Q 415.09 936.09 420.56 936.11
  C 421.78 936.12 422.81 935.75 424.02 935.70
  Q 435.89 935.17 450.36 935.33
  C 453.11 935.35 455.42 934.14 458.24 934.91
  Q 460.12 935.43 462.40 935.39
  Q 473.58 935.21 484.75 935.62
  Q 485.42 935.65 486.03 935.92
  Q 486.61 936.17 487.24 936.17
  Q 493.54 936.14 499.72 936.80
  C 504.86 937.35 510.18 937.25 515.25 937.87
  C 518.99 938.32 522.79 938.20 526.53 938.63
  Q 528.66 938.87 533.01 939.20
  Q 535.82 939.42 539.49 939.99
  Q 543.67 940.65 550.50 940.60
  L 586.27 945.20
  Q 591.09 946.53 596.06 946.71
  C 597.73 946.76 599.04 947.47 600.64 947.45
  Q 603.02 947.40 605.47 947.97
  C 608.13 948.57 610.80 948.40 613.47 948.98
  C 615.98 949.52 618.53 949.28 621.01 949.91
  C 623.08 950.43 624.61 950.28 626.58 950.60
  Q 636.98 952.26 647.47 953.18
  L 675.99 956.93
  Q 679.16 957.70 687.25 958.44
  Q 701.45 959.73 715.69 960.65
  Q 717.74 960.78 719.78 961.02
  C 722.30 961.32 724.99 960.81 727.49 961.36
  C 729.97 961.91 732.79 961.61 735.36 961.82
  Q 741.18 962.28 747.20 961.98
  C 748.46 961.92 749.39 962.59 750.50 962.60
  Q 768.92 962.78 788.72 962.70
  Q 791.17 962.69 796.25 962.25
  Q 800.03 961.93 803.82 962.04
  Q 806.27 962.11 808.63 961.88
  C 811.42 961.60 814.25 961.97 817.01 961.40
  C 819.71 960.85 822.65 961.22 825.58 960.87
  Q 829.74 960.38 833.93 960.20
  C 837.41 960.04 840.72 959.46 844.14 959.26
  C 847.59 959.07 850.90 958.36 854.33 958.20
  C 856.64 958.09 859.00 957.50 861.22 956.85
  L 884.43 953.28
  Q 886.76 953.31 889.02 952.89
  Q 891.01 952.52 893.02 952.19
  Q 896.99 951.54 900.85 950.72
  C 902.97 950.28 904.89 950.26 906.95 949.49
  C 908.10 949.06 909.15 949.66 910.35 949.07
  C 912.01 948.26 913.69 948.53 915.50 948.03
  Q 919.23 947.00 922.99 946.40
  Q 925.53 945.99 927.97 944.88
  L 940.93 941.62
  Q 944.03 941.18 948.75 940.00
  Q 962.20 936.64 973.26 932.84
  L 983.40 929.42
  Q 996.34 926.17 1008.57 921.02
  L 1014.96 918.45
  Q 1027.41 914.59 1039.05 908.93
  L 1046.68 905.41
  Q 1055.78 902.29 1064.06 897.40
  L 1093.48 882.02
  Q 1103.00 877.77 1111.51 871.67
  L 1119.97 866.44
  Q 1124.55 864.72 1128.24 861.41
  Q 1131.68 858.85 1135.39 856.39
  Q 1161.72 838.94 1182.99 822.38
  Q 1190.38 816.62 1197.35 810.82
  Q 1205.35 804.17 1211.01 798.31
  C 1214.42 794.78 1218.27 791.93 1221.42 788.30
  Q 1224.94 784.25 1228.62 780.71
  C 1229.71 779.66 1230.50 778.44 1231.54 777.31
  Q 1238.24 770.02 1244.58 762.71
  Q 1246.49 760.51 1248.45 758.31
  Q 1251.10 755.36 1253.63 751.73
  Q 1256.42 747.34 1259.82 742.30
  Q 1260.96 740.61 1259.51 739.67
  Q 1258.93 739.30 1257.36 739.22
  Q 1255.58 739.13 1254.24 738.31
  Q 1241.69 736.08 1229.25 738.38
  L 1211.04 742.41
  Q 1209.54 742.54 1206.25 743.48
  Q 1195.84 746.45 1187.94 750.51
  L 1180.77 754.18
  A 1.82 1.82 0.0 0 1 1178.40 753.53
  Q 1175.59 749.01 1172.46 744.70
  Q 1168.87 739.77 1165.51 737.06
  Q 1160.20 732.79 1154.84 729.69
  Q 1148.38 725.95 1140.50 724.80
  Q 1135.49 724.07 1130.60 723.62
  Q 1128.59 722.66 1126.41 724.18
  Q 1101.28 727.16 1087.12 748.14
  Q 1081.79 756.03 1080.31 764.03
  C 1079.81 766.73 1079.04 769.24 1078.91 772.04
  Q 1078.51 780.39 1079.89 788.36
  A 1.68 1.68 0.0 0 1 1078.40 790.32
  L 1074.34 790.73
  Q 1072.44 790.37 1070.57 790.64
  Q 1068.62 790.91 1066.88 790.94
  Q 1065.44 790.95 1064.22 791.25
  C 1062.25 791.73 1060.36 791.28 1058.43 791.69
  C 1055.15 792.38 1051.35 791.87 1047.94 792.15
  C 1041.15 792.71 1034.13 792.68 1027.40 792.16
  Q 1024.28 791.91 1021.14 791.93
  Q 1019.62 791.93 1015.91 791.50
  Q 1013.29 791.20 1010.58 791.62
  Q 1007.31 791.58 1002.50 790.91
  Q 980.60 787.90 963.46 783.02
  Q 943.37 777.30 927.21 771.31
  Q 879.86 753.76 834.69 725.10
  Q 812.17 710.82 790.95 694.39
  Q 769.29 677.63 747.92 659.52
  Q 736.34 649.71 724.41 638.52
  Q 712.57 627.42 701.41 616.85
  C 696.51 612.22 691.68 607.46 686.71 602.78
  Q 685.03 601.19 683.52 599.61
  C 681.16 597.14 678.54 595.06 676.13 592.63
  Q 674.12 590.62 672.08 588.67
  Q 660.97 578.04 650.04 567.22
  C 649.17 566.35 648.09 565.73 647.25 564.82
  C 643.20 560.44 638.80 556.61 634.64 552.29
  Q 631.52 549.03 628.10 545.80
  Q 622.09 540.10 616.64 535.05
  Q 616.00 534.45 615.38 533.86
  Q 609.14 527.88 603.10 522.40
  Q 591.10 511.49 579.31 500.48
  Q 568.33 489.83 555.90 480.68
  L 534.79 464.72
  Q 528.63 459.52 521.48 455.65
  Q 519.84 455.27 518.58 453.66
  L 505.01 444.74
  L 480.02 429.52
  Q 473.67 424.78 466.37 421.25
  Q 451.71 412.72 435.79 406.15
  Q 435.00 405.82 435.45 406.55
  Q 440.36 414.45 444.92 422.32
  Q 447.21 426.26 449.24 430.30
  Q 451.30 434.40 453.55 438.23
  Q 454.15 439.25 454.61 440.41
  Q 455.04 441.52 455.65 442.65
  Q 459.95 450.60 462.81 459.04
  Z"
/>
<path fill="#bce8eb" d="
  M 466.37 421.25
  L 480.02 429.52
  L 505.01 444.74
  L 508.30 447.42
  Q 507.43 447.31 507.00 448.04
  A 1.10 1.09 41.4 0 0 507.08 449.27
  C 512.79 456.69 518.70 464.35 523.41 472.15
  Q 542.35 503.50 550.83 538.13
  Q 554.28 552.26 555.76 568.75
  C 555.86 569.90 555.52 571.16 555.79 572.25
  Q 556.49 575.07 556.43 577.76
  Q 556.37 580.46 556.61 583.38
  Q 557.08 589.27 556.59 595.00
  Q 556.37 597.55 556.45 599.99
  Q 556.53 602.52 555.96 604.99
  C 555.49 607.05 555.80 609.23 555.59 611.38
  Q 552.39 645.31 540.06 677.00
  Q 529.71 703.58 515.22 727.05
  Q 502.72 747.31 487.19 767.26
  Q 475.73 781.97 463.10 795.84
  Q 458.39 801.02 454.78 804.78
  Q 450.73 808.98 446.66 813.17
  Q 442.56 817.41 438.33 821.43
  Q 419.97 838.87 403.61 851.82
  Q 397.62 856.57 392.05 860.61
  Q 371.42 875.59 347.79 892.08
  Q 346.79 892.78 345.58 892.82
  Q 345.10 892.83 344.69 893.09
  Q 342.49 894.48 340.43 895.96
  Q 338.85 897.10 336.36 897.14
  Q 334.19 897.18 332.04 897.05
  L 335.25 893.93
  L 339.49 890.40
  Q 351.19 880.63 362.46 869.80
  Q 365.39 866.97 368.36 864.37
  Q 371.65 861.48 374.50 858.03
  C 375.59 856.71 377.01 855.80 378.18 854.60
  L 380.33 852.40
  Q 382.18 850.80 388.12 844.37
  Q 407.77 823.10 421.22 804.84
  Q 423.36 802.40 424.12 801.37
  Q 436.07 785.21 445.98 767.73
  Q 452.58 756.93 457.46 747.00
  Q 460.20 741.42 464.33 732.12
  Q 476.13 706.14 482.83 678.36
  Q 486.33 663.86 488.44 649.10
  Q 489.17 643.92 489.93 638.73
  Q 489.61 638.82 489.81 638.28
  L 491.64 612.74
  Q 491.91 612.24 491.70 611.79
  Q 492.15 586.06 491.33 578.43
  Q 490.57 571.25 490.58 567.77
  C 490.59 566.43 490.03 565.12 489.93 563.75
  Q 489.40 556.32 488.35 548.94
  Q 482.08 504.90 465.59 464.50
  Q 464.41 461.62 462.81 459.04
  Q 459.95 450.60 455.65 442.65
  Q 455.04 441.52 454.61 440.41
  Q 454.15 439.25 453.55 438.23
  Q 451.30 434.40 449.24 430.30
  Q 447.21 426.26 444.92 422.32
  Q 440.36 414.45 435.45 406.55
  Q 435.00 405.82 435.79 406.15
  Q 451.71 412.72 466.37 421.25
  Z"
/>
<path fill="#ffffff" d="
  M 508.30 447.42
  L 518.58 453.66
  Q 519.84 455.27 521.48 455.65
  L 534.79 464.72
  L 555.90 480.68
  L 579.31 500.48
  Q 591.10 511.49 603.10 522.40
  Q 609.14 527.88 615.38 533.86
  Q 616.00 534.45 616.64 535.05
  Q 622.09 540.10 628.10 545.80
  Q 631.52 549.03 634.64 552.29
  C 638.80 556.61 643.20 560.44 647.25 564.82
  C 648.09 565.73 649.17 566.35 650.04 567.22
  Q 660.97 578.04 672.08 588.67
  Q 674.12 590.62 676.13 592.63
  C 678.54 595.06 681.16 597.14 683.52 599.61
  Q 685.03 601.19 686.71 602.78
  C 691.68 607.46 696.51 612.22 701.41 616.85
  Q 712.57 627.42 724.41 638.52
  Q 736.34 649.71 747.92 659.52
  Q 769.29 677.63 790.95 694.39
  Q 812.17 710.82 834.69 725.10
  Q 879.86 753.76 927.21 771.31
  Q 943.37 777.30 963.46 783.02
  Q 980.60 787.90 1002.50 790.91
  Q 1007.31 791.58 1010.58 791.62
  C 1017.37 792.48 1021.88 792.49 1027.25 792.82
  Q 1032.77 793.16 1034.24 793.15
  Q 1054.32 793.13 1074.34 790.73
  L 1078.40 790.32
  A 1.68 1.68 0.0 0 0 1079.89 788.36
  Q 1078.51 780.39 1078.91 772.04
  C 1079.04 769.24 1079.81 766.73 1080.31 764.03
  Q 1081.79 756.03 1087.12 748.14
  Q 1101.28 727.16 1126.41 724.18
  L 1130.60 723.62
  Q 1135.49 724.07 1140.50 724.80
  Q 1148.38 725.95 1154.84 729.69
  Q 1160.20 732.79 1165.51 737.06
  Q 1168.87 739.77 1172.46 744.70
  Q 1175.59 749.01 1178.40 753.53
  A 1.82 1.82 0.0 0 0 1180.77 754.18
  L 1187.94 750.51
  L 1211.04 742.41
  L 1229.25 738.38
  Q 1241.77 737.54 1254.24 738.31
  Q 1255.58 739.13 1257.36 739.22
  Q 1258.93 739.30 1259.51 739.67
  Q 1260.96 740.61 1259.82 742.30
  Q 1256.42 747.34 1253.63 751.73
  Q 1249.12 752.12 1245.07 753.73
  Q 1241.63 755.10 1237.70 758.26
  Q 1222.32 770.62 1210.50 778.54
  Q 1190.08 792.22 1164.96 807.50
  Q 1156.20 812.83 1147.40 817.41
  Q 1130.77 826.06 1110.01 835.21
  Q 1054.56 859.66 998.90 879.47
  Q 983.57 884.92 974.16 887.93
  Q 966.75 890.30 958.89 892.79
  Q 951.24 895.21 943.50 897.29
  Q 930.54 900.77 918.48 903.38
  C 916.73 903.76 915.40 904.91 913.77 905.32
  Q 905.35 907.46 897.71 909.03
  Q 886.34 911.35 874.94 913.68
  Q 854.76 917.79 835.67 919.71
  Q 831.87 920.10 828.68 920.96
  Q 825.22 921.89 821.72 922.16
  Q 816.48 922.57 811.15 923.48
  Q 804.32 924.63 798.44 925.25
  Q 797.17 925.38 796.28 925.70
  Q 795.83 925.86 795.35 925.87
  Q 792.82 925.89 790.21 926.37
  Q 787.88 926.79 785.39 927.08
  Q 773.58 928.46 761.37 929.52
  C 758.59 929.76 755.90 929.60 753.21 929.92
  C 748.95 930.43 744.88 930.04 740.76 930.45
  Q 737.73 930.76 734.68 930.74
  C 730.38 930.71 726.14 931.32 721.80 931.31
  Q 717.81 931.30 713.71 931.54
  Q 708.41 931.85 702.50 931.92
  Q 701.72 931.93 700.88 931.97
  Q 690.22 932.46 678.03 932.27
  C 677.06 932.26 676.09 932.64 675.11 932.64
  Q 662.84 932.65 650.04 932.65
  C 648.74 932.65 647.59 932.24 646.27 932.24
  Q 627.96 932.24 609.84 932.24
  Q 609.34 932.24 608.92 931.95
  Q 608.74 931.82 608.51 931.81
  C 595.52 930.97 582.50 931.52 569.32 931.10
  C 555.42 930.66 542.97 930.74 529.69 930.52
  C 525.17 930.44 520.47 930.71 515.91 930.82
  Q 515.84 930.82 512.38 931.07
  Q 508.11 931.37 504.25 930.98
  Q 499.83 930.53 491.80 930.78
  C 487.77 930.91 484.26 931.56 480.38 932.37
  Q 478.72 932.71 477.49 933.81
  Q 477.11 934.14 476.61 934.21
  L 473.53 934.59
  Q 467.85 934.74 462.17 934.62
  Q 455.24 934.48 450.83 934.58
  Q 438.28 934.87 425.67 934.94
  C 424.40 934.95 423.25 935.29 422.00 935.34
  Q 395.17 936.56 368.69 941.15
  L 348.59 945.00
  Q 331.82 947.69 315.69 952.72
  L 302.43 956.75
  Q 289.10 960.06 276.51 965.41
  L 268.75 968.57
  Q 258.03 972.18 248.16 977.43
  L 241.60 980.75
  Q 232.25 984.24 223.95 989.74
  Q 221.17 990.71 219.10 992.46
  Q 211.12 996.29 203.95 1001.53
  L 196.66 1006.00
  A 0.29 0.27 46.8 0 1 196.34 1005.98
  L 196.03 1005.74
  A 0.42 0.41 -39.6 0 1 196.10 1005.04
  Q 198.95 1003.62 200.37 1001.18
  L 223.46 981.43
  L 254.52 956.38
  L 268.05 946.02
  L 290.17 929.29
  L 315.10 910.37
  L 332.04 897.05
  Q 334.19 897.18 336.36 897.14
  Q 338.85 897.10 340.43 895.96
  Q 342.49 894.48 344.69 893.09
  Q 345.10 892.83 345.58 892.82
  Q 346.79 892.78 347.79 892.08
  Q 371.42 875.59 392.05 860.61
  Q 397.62 856.57 403.61 851.82
  Q 419.97 838.87 438.33 821.43
  Q 442.56 817.41 446.66 813.17
  Q 450.73 808.98 454.78 804.78
  Q 458.39 801.02 463.10 795.84
  Q 475.73 781.97 487.19 767.26
  Q 502.72 747.31 515.22 727.05
  Q 529.71 703.58 540.06 677.00
  Q 552.39 645.31 555.59 611.38
  C 555.80 609.23 555.49 607.05 555.96 604.99
  Q 556.53 602.52 556.45 599.99
  Q 556.37 597.55 556.59 595.00
  Q 557.08 589.27 556.61 583.38
  Q 556.37 580.46 556.43 577.76
  Q 556.49 575.07 555.79 572.25
  C 555.52 571.16 555.86 569.90 555.76 568.75
  Q 554.28 552.26 550.83 538.13
  Q 542.35 503.50 523.41 472.15
  C 518.70 464.35 512.79 456.69 507.08 449.27
  A 1.10 1.09 41.4 0 1 507.00 448.04
  Q 507.43 447.31 508.30 447.42
  Z
  M 1121.09 751.64
  Q 1118.88 753.00 1117.29 755.21
  Q 1111.13 760.40 1110.43 768.75
  Q 1109.49 779.95 1117.71 787.57
  L 1119.00 788.76
  Q 1127.06 795.42 1136.97 793.09
  C 1142.57 791.78 1147.67 788.27 1150.59 783.45
  Q 1157.33 772.35 1151.70 760.50
  Q 1148.31 753.36 1141.02 750.53
  Q 1140.51 749.99 1139.25 749.54
  Q 1129.62 746.12 1121.09 751.64
  Z"
/>
<path fill="#306b81" d="
  M 1141.02 750.53
  Q 1151.97 756.61 1153.38 768.36
  Q 1154.01 773.59 1152.54 777.89
  C 1149.57 786.57 1142.96 792.37 1133.59 792.97
  Q 1125.96 793.46 1119.00 788.76
  L 1117.71 787.57
  Q 1116.96 786.07 1115.90 784.88
  Q 1114.42 783.24 1113.96 782.35
  Q 1106.34 767.93 1117.29 755.21
  Q 1118.88 753.00 1121.09 751.64
  Q 1123.10 751.04 1124.97 750.20
  Q 1126.41 749.55 1127.74 749.42
  C 1129.10 749.30 1130.40 748.65 1131.76 748.74
  Q 1136.43 749.04 1141.02 750.53
  Z"
/>
<path fill="#bce8eb" d="
  M 1253.63 751.73
  Q 1251.10 755.36 1248.45 758.31
  Q 1246.49 760.51 1244.58 762.71
  Q 1238.24 770.02 1231.54 777.31
  C 1230.50 778.44 1229.71 779.66 1228.62 780.71
  Q 1224.94 784.25 1221.42 788.30
  C 1218.27 791.93 1214.42 794.78 1211.01 798.31
  Q 1205.35 804.17 1197.35 810.82
  Q 1190.38 816.62 1182.99 822.38
  Q 1161.72 838.94 1135.39 856.39
  Q 1131.68 858.85 1128.24 861.41
  L 1119.97 866.44
  L 1111.51 871.67
  L 1093.48 882.02
  L 1064.06 897.40
  L 1046.68 905.41
  L 1039.05 908.93
  L 1014.96 918.45
  L 1008.57 921.02
  L 983.40 929.42
  L 973.26 932.84
  L 940.93 941.62
  L 927.97 944.88
  L 884.43 953.28
  L 861.22 956.85
  Q 849.71 958.23 845.00 958.62
  Q 834.20 959.52 823.60 960.51
  Q 822.09 960.65 820.65 960.58
  Q 819.15 960.51 817.69 960.75
  Q 815.53 961.09 813.34 961.19
  Q 805.41 961.52 797.85 961.54
  C 795.81 961.55 793.83 962.10 791.72 962.13
  Q 770.44 962.34 750.99 961.98
  C 749.79 961.96 748.66 961.49 747.56 961.51
  Q 738.02 961.65 727.27 960.86
  Q 721.51 960.45 715.75 960.17
  C 713.39 960.05 711.19 959.46 708.79 959.49
  C 704.85 959.54 700.87 958.91 696.98 958.70
  Q 692.64 958.46 688.98 958.05
  Q 685.77 957.69 682.49 957.52
  Q 679.26 957.36 675.99 956.93
  L 647.47 953.18
  Q 640.16 951.98 632.91 950.86
  C 631.98 950.72 631.06 950.90 630.17 950.70
  Q 626.97 949.96 623.78 949.78
  C 621.73 949.67 619.82 948.99 617.80 948.88
  Q 615.77 948.76 613.72 948.48
  Q 600.05 946.62 586.27 945.20
  L 550.50 940.60
  Q 535.97 938.97 521.49 937.85
  Q 497.53 936.00 473.53 934.59
  L 476.61 934.21
  Q 477.11 934.14 477.49 933.81
  Q 478.72 932.71 480.38 932.37
  C 484.26 931.56 487.77 930.91 491.80 930.78
  Q 499.83 930.53 504.25 930.98
  Q 508.11 931.37 512.38 931.07
  Q 515.84 930.82 515.91 930.82
  C 520.47 930.71 525.17 930.44 529.69 930.52
  C 542.97 930.74 555.42 930.66 569.32 931.10
  C 582.50 931.52 595.52 930.97 608.51 931.81
  Q 608.74 931.82 608.92 931.95
  Q 609.34 932.24 609.84 932.24
  Q 627.96 932.24 646.27 932.24
  C 647.59 932.24 648.74 932.65 650.04 932.65
  Q 662.84 932.65 675.11 932.64
  C 676.09 932.64 677.06 932.26 678.03 932.27
  Q 690.22 932.46 700.88 931.97
  Q 701.72 931.93 702.50 931.92
  Q 708.41 931.85 713.71 931.54
  Q 717.81 931.30 721.80 931.31
  C 726.14 931.32 730.38 930.71 734.68 930.74
  Q 737.73 930.76 740.76 930.45
  C 744.88 930.04 748.95 930.43 753.21 929.92
  C 755.90 929.60 758.59 929.76 761.37 929.52
  Q 773.58 928.46 785.39 927.08
  Q 787.88 926.79 790.21 926.37
  Q 792.82 925.89 795.35 925.87
  Q 795.83 925.86 796.28 925.70
  Q 797.17 925.38 798.44 925.25
  Q 804.32 924.63 811.15 923.48
  Q 816.48 922.57 821.72 922.16
  Q 825.22 921.89 828.68 920.96
  Q 831.87 920.10 835.67 919.71
  Q 854.76 917.79 874.94 913.68
  Q 886.34 911.35 897.71 909.03
  Q 905.35 907.46 913.77 905.32
  C 915.40 904.91 916.73 903.76 918.48 903.38
  Q 930.54 900.77 943.50 897.29
  Q 951.24 895.21 958.89 892.79
  Q 966.75 890.30 974.16 887.93
  Q 983.57 884.92 998.90 879.47
  Q 1054.56 859.66 1110.01 835.21
  Q 1130.77 826.06 1147.40 817.41
  Q 1156.20 812.83 1164.96 807.50
  Q 1190.08 792.22 1210.50 778.54
  Q 1222.32 770.62 1237.70 758.26
  Q 1241.63 755.10 1245.07 753.73
  Q 1249.12 752.12 1253.63 751.73
  Z"
/>
</svg>
